<svg id="Layer_1" xmlns="http://www.w3.org/2000/svg" viewBox="0 0 512 115" width="512" height="115"><style>.st0{fill:#6f7175}</style><path class="st0" d="M200.6 63.2l-.1 1.1C199.1 78.7 188.6 88 173.7 88c-8.6 0-16-2.8-21.3-8.2C147 74.4 144 66.6 144 58c0-9 2.9-16.7 8.4-22.2 5.3-5.4 12.7-8.2 21.3-8.2 14.2 0 24.7 8.4 26.2 20.9l.1 1.1h-14.4l-.1-.9c-.7-5-5.9-8.9-11.8-8.9-4.1 0-7.5 1.3-10 3.8-3.1 3.1-4.8 8.2-4.8 14.3 0 5.8 1.7 10.7 4.8 13.8 2.5 2.5 5.9 3.8 10.1 3.8 6.8 0 11.3-4.3 12.3-11.6l.1-.8 14.4.1zm20.2 11.7c1.5 1.5 3.6 2.3 6.2 2.3s4.7-.8 6.2-2.3c2.5-2.5 3.1-6.6 3.1-9.5 0-3-.5-7.1-3.1-9.6-1.5-1.5-3.6-2.3-6.2-2.3s-4.6.8-6.1 2.3c-2.5 2.5-3.1 6.6-3.1 9.6 0 2.9.5 7 3 9.5m6.2-31.8c6.9 0 12.7 2.2 16.9 6.3 4 4 6.1 9.5 6.1 16 0 6.4-2.1 11.9-6.1 15.9-4.1 4.1-10 6.3-16.9 6.3-6.9 0-12.7-2.2-16.8-6.3-4-4-6.1-9.5-6.1-15.9 0-6.5 2.1-12.1 6-16.1 4.1-4.1 10-6.2 16.9-6.2m62.7 31.8c1.5 1.5 3.6 2.3 6.2 2.3s4.7-.8 6.2-2.3c2.5-2.5 3.1-6.6 3.1-9.5 0-3-.5-7.1-3.1-9.6-1.5-1.5-3.6-2.3-6.2-2.3s-4.6.8-6.2 2.3c-2.5 2.5-3.1 6.6-3.1 9.6.1 2.9.6 7 3.1 9.5m6.2-31.8c6.9 0 12.7 2.2 16.9 6.3 4 4 6.1 9.5 6.1 16 0 6.4-2.1 11.9-6.1 15.9-4.1 4.1-10 6.3-16.9 6.3-6.9 0-12.7-2.2-16.8-6.3-4-4-6.1-9.5-6.1-15.9 0-6.5 2.1-12.1 6.1-16.1 4-4.1 9.9-6.2 16.8-6.2m-41.3-14.2h13.7v57.7h-13.7zm118.6 0h13.6v57.7h-13.6zm130.3 24.7h8.5v-9.4h-8.5V32h-13.6v12.1h-7v9.4h7v22.7c0 3.1.9 5.5 2.6 7.2 3 3 8.1 3.4 11.7 3.4 3 0 5.3-.1 7-.4l.9-.1V75.6l-1.2.2c-1.1.2-2.1.3-3.4.3-1.8 0-2.8-.2-3.2-.7-.4-.4-.7-1.4-.7-3V53.6zM355 65.4c0-4.1-1.2-7.7-3.2-9.7-1.5-1.5-3.5-2.3-5.9-2.3-2.5 0-4.5.8-5.9 2.2-2 2-3.1 5.5-3.1 9.8 0 4.2 1.1 7.5 3.1 9.5 1.5 1.5 3.5 2.3 6 2.3s4.5-.8 6-2.2c2.4-2.6 3-6.6 3-9.6m-17.8 35.2h-13.7V44.1h11.7l1.4 3.2.1.2.1-.1c2.9-2.8 6.9-4.3 11.5-4.3 5.7 0 10.4 1.8 14 5.3 4.1 4 6.3 10.2 6.3 17.3 0 6.6-2.3 12.6-6.2 16.6-3.4 3.4-8.1 5.3-13.4 5.3-4.5 0-8.6-1.5-11.6-4.3l-.2-.2v17.5zm77.2-23.4c2.5 0 4.6-.8 6-2.3 2-2 3.1-5.4 3.1-9.5 0-4.3-1.1-7.8-3.1-9.8-1.5-1.5-3.5-2.2-5.9-2.2-2.4 0-4.4.8-5.9 2.3-2.1 2-3.2 5.6-3.2 9.7 0 3 .5 7 3 9.5 1.5 1.5 3.5 2.3 6 2.3m22.4 9.2h-11.6l-1.6-3.6v-.3l-.2.2c-3 3.1-7.4 4.8-12.1 4.8-5.3 0-9.9-1.8-13.4-5.3-4-3.9-6.2-10-6.2-16.6 0-7.1 2.2-13.3 6.3-17.3 3.5-3.5 8.2-5.3 14-5.3 4.7 0 8.7 1.5 11.5 4.3l.1.1 1.5-3.4h11.7v42.4zm17.8-12.8c1 4.2 6.2 4.5 7.7 4.5.6 0 4-.1 5.6-1.8.6-.6 1-1.4 1-2.4 0-2.5-4.7-3.7-12.4-5.2-4.6-1-14.2-3-14.2-11.8 0-3.7 1.2-6.7 3.5-9 3.3-3.3 8.6-4.9 16-4.9 11.9 0 18.6 4.6 19.6 13.4l-13.1-.1c-.3-1.7-1.4-3.9-6.8-3.9-3 0-4.3.7-4.9 1.2-.4.4-.6.9-.6 1.5 0 2.5 4.3 3.3 9.2 4.3 1 .2 2.1.4 3.2.7 4.6 1 14.2 3.1 14.2 12.3 0 3.9-1.3 7.2-3.8 9.7-4.4 4.4-11.4 5.3-16.6 5.3-6.2 0-11.1-1.2-14.7-3.7-3.5-2.4-5.6-5.9-6.1-10.3l13.2.2zM53.4 17.8c5 0 11.4-4 20.3-4 8.2 0 13.7 3.2 16.5 3.6 1.8.2 4.7.2 8.7.1-2.1-2.2-4.3-4.2-6.8-6h-69c-2.5 1.9-4.9 4-7.1 6.3h37.4zm60.7 28.4l-13.5.2c-2.8 0-8.7 2.1-23.6 2.1h-4.8c-13.6 0-22.1-2-26.9-2.4H1.2c-.4 2.1-.7 4.2-.9 6.4h46.4c3.9 0 16.2-2.4 25.5-2.4l4.6-.1c9.3 0 17.2 2.3 21.5 2.3l16.7.1c-.2-2.1-.5-4.2-.9-6.2M39.9 41c2.3 0 18.3-2.2 29.9-2.2H79c11.7 0 19.6 2 24.3 2h9.5c-.6-2.1-1.4-4.1-2.2-6H105c-2.6.6-13.5 2.8-25.8 2.4l-9.3.1c-9.6.2-22.7-1.6-28.5-2.6H4.8c-.9 2-1.6 4.1-2.3 6.2l37.4.1zm4.2-11.7c3.3 0 14.5-2.5 28-2.5h4.6c11.7 0 17.2 1.3 22.1 1.7l8.6.3c-1.1-2-2.4-3.9-3.8-5.7l-9.6.6c-2.7.3-8 1.6-17.3 1.6l-4.7.1c-10.5 0-16.9-1.5-21.6-2h-39c-1.4 1.9-2.7 3.9-3.9 6h36.6zm-12.7-23h52.5C76 2.3 67.1 0 57.6 0c-9.4 0-18.3 2.3-26.2 6.3m61 51.3c-7.7 0-13.3 1.9-17.9 1.9-4.7 0-11.3-1.9-15.1-1.9H0c0 31.8 25.8 57.6 57.6 57.6s57.6-25.8 57.6-57.6H92.4z"/></svg>