<svg xmlns="http://www.w3.org/2000/svg" width="40" height="40" viewBox="0 0 40 40">
    <g fill="none" fill-rule="evenodd">
        <g>
            <g>
                <g>
                    <path d="M0 0H40V40H0z" transform="translate(-40 -300) translate(24 284) translate(16 16)"/>
                    <path fill="#00AABE" fill-rule="nonzero" d="M14.925 7.342c1.01-.789 2.47-.624 3.28.378l.17.213c5.77 7.184 8.684 12.785 8.684 16.967 0 3.922-1.438 6.91-3.95 8.865-1.964 1.53-4.487 2.313-6.736 2.313-2.272 0-4.774-.751-6.73-2.256-2.52-1.94-3.957-4.938-3.957-8.922 0-4.223 2.972-9.894 8.856-17.181.105-.13.223-.248.352-.353zm1.448 2.48l-.181.228C11 16.585 8.432 21.586 8.432 24.9c0 3.142 1.049 5.334 2.884 6.746 1.446 1.113 3.36 1.687 5.057 1.687 1.664 0 3.591-.599 5.05-1.734 1.839-1.432 2.89-3.618 2.89-6.7 0-3.311-2.566-8.311-7.756-14.844l-.184-.232zm-4.019 14.905c.237 0 .438.164.49.387l.013.087c.079 1.311.49 2.292 1.17 3.008l.15.15c.155.145.173.384.042.55 0 .002-.002.003-.002.003l-.917 1.17-.094.12c-.23.293-.654.344-.948.114-.019-.015-.038-.031-.055-.049l-.003-.002c-1.175-1.153-1.898-2.719-2.065-4.656l-.023-.345c-.015-.282.202-.522.483-.536h1.759zM30.181 6.526l.108.145.102.145c3.563 5.12 5.344 9.118 5.344 12.278 0 2.968-.955 5.393-2.774 7.027-1.225 1.1-2.795 1.77-4.342 1.896.07-.65.106-1.331.106-2.043 0-.238-.008-.481-.025-.73.855-.134 1.731-.541 2.426-1.166 1.204-1.08 1.864-2.756 1.864-4.984 0-2.384-1.488-5.798-4.559-10.284l-.292-.424-.05-.073-.05.072c-1.517 2.178-2.67 4.11-3.471 5.802-.511-.887-1.07-1.803-1.679-2.748.802-1.473 1.802-3.06 3-4.77.077-.111.162-.216.254-.315l.142-.142.034-.032c1.17-1.054 2.895-.871 3.862.346z" transform="translate(-40 -300) translate(24 284) translate(16 16)"/>
                </g>
            </g>
        </g>
    </g>
</svg>
