<svg xmlns="http://www.w3.org/2000/svg" width="40" height="40" viewBox="0 0 40 40">
    <g fill="none" fill-rule="evenodd">
        <g>
            <g>
                <g>
                    <path d="M0 0H40V40H0z" transform="translate(-40 -380) translate(24 364) translate(16 16)"/>
                    <path fill="#00B0CA" fill-rule="nonzero" d="M23.442 22.53c.952-.747 2.325-.59 3.085.357l.08.1c2.847 3.564 4.275 6.358 4.275 8.617 0 2.123-.787 3.865-2.263 5.02-1.08.845-2.483 1.317-3.815 1.317-1.342 0-2.732-.455-3.807-1.286-1.484-1.148-2.272-2.898-2.272-5.051 0-2.28 1.456-5.106 4.357-8.719.099-.122.21-.234.332-.333zm1.362 1.784l-.055.069c-2.543 3.196-3.769 5.602-3.769 7.212 0 1.482.487 2.568 1.395 3.272.671.522 1.575.82 2.429.82.835 0 1.749-.31 2.427-.842.91-.714 1.396-1.796 1.396-3.25 0-1.61-1.225-4.016-3.767-7.21l-.056-.071zm-8.255-18.5c1.362 1.074 2.537 1.58 3.511 1.58.897 0 1.979-.43 3.233-1.341l.122-.09.123-.092c.66-.504 1.543-.63 2.322-.344l.042.015 3.17 1.232c.21.081.408.192.586.328l.045.034 5.805 4.646c1.044.836 1.162 2.352.247 3.329-.04.043-.083.085-.128.126l-.044.04-4.75 4.132v6.392c-.726-1.254-1.642-2.598-2.744-4.04v-7.153c0-.542.438-.98.98-.98h.784c.541 0 .98.438.98.98v1.162l2.523-2.194-5.326-4.262-2.97-1.154-.062.047c-1.7 1.253-3.32 1.914-4.876 1.931h-.062c-1.612 0-3.28-.691-5.014-2.016l-.056-.043-3.215 1.232-5.16 4.294 2.502 2.406v-1.403c0-.542.44-.98.981-.98h.784c.542 0 .98.438.98.98V29.02h5.39c-.34.976-.532 1.889-.576 2.745h-6.578c-.541 0-.98-.44-.98-.98V19.818L4.33 15.217c-.965-.927-.933-2.448.067-3.337l.03-.025.029-.025 5.608-4.667c.187-.156.398-.282.624-.375l.052-.02 3.423-1.312c.8-.306 1.713-.173 2.385.357z" transform="translate(-40 -380) translate(24 364) translate(16 16)"/>
                </g>
            </g>
        </g>
    </g>
</svg>
