<svg xmlns="http://www.w3.org/2000/svg" width="40" height="40" viewBox="0 0 40 40">
    <g fill="none" fill-rule="evenodd">
        <g>
            <g>
                <g>
                    <path d="M0 0H40V40H0z" transform="translate(-40 -220) translate(24 204) translate(16 16)"/>
                    <path fill="#00AABE" fill-rule="nonzero" d="M18.522 6.19c-.13.104-.248.223-.353.352-5.884 7.288-8.855 12.959-8.855 17.181 0 3.984 1.436 6.983 3.956 8.922 1.956 1.506 4.458 2.257 6.73 2.257 2.25 0 4.772-.784 6.736-2.313 2.513-1.956 3.95-4.943 3.95-8.866 0-4.181-2.914-9.783-8.683-16.967l-.171-.212c-.81-1.003-2.27-1.167-3.28-.379l-.03.025zM20 8.646l.185.232c5.19 6.533 7.756 11.534 7.756 14.845 0 3.082-1.052 5.268-2.89 6.7-1.46 1.135-3.387 1.734-5.051 1.734-1.697 0-3.61-.575-5.056-1.687-1.836-1.413-2.885-3.604-2.885-6.747 0-3.313 2.569-8.314 7.76-14.85L20 8.646z" transform="translate(-40 -220) translate(24 204) translate(16 16)"/>
                    <path fill="#00AABE" fill-rule="nonzero" d="M16.484 24.024c.085 1.405.551 2.43 1.321 3.158.154.145.172.384.041.551l-.002.003-1.01 1.289c-.23.293-.655.345-.948.115-.02-.016-.038-.032-.056-.05 0 0-.002 0-.002-.002-1.244-1.22-1.982-2.904-2.089-5-.014-.282.202-.522.484-.537H15.982c.266 0 .486.207.502.473z" transform="translate(-40 -220) translate(24 204) translate(16 16)"/>
                </g>
            </g>
        </g>
    </g>
</svg>
