<svg width="16" height="16" xmlns="http://www.w3.org/2000/svg">
    <g fill="none" fill-rule="evenodd">
        <path d="M0 0h16v16H0z"/>
        <path d="M5.97 2.937a.941.941 0 0 1 1.259.09l.053.061.068.085c.385.48.738.94 1.059 1.384l.267.377c1.428 2.047 2.148 3.712 2.148 5.026 0 1.569-.576 2.764-1.58 3.546a4.508 4.508 0 0 1-2.695.925c-.909 0-1.91-.3-2.692-.902-1.008-.776-1.582-1.976-1.582-3.57 0-1.688 1.188-3.957 3.542-6.872a.941.941 0 0 1 .09-.097l.063-.053zm.81 1.285-.231-.293-.072.09c-.373.47-.712.92-1.017 1.349l-.254.363c-1.225 1.79-1.833 3.21-1.833 4.229 0 1.257.42 2.134 1.154 2.698a3.422 3.422 0 0 0 2.022.675c.666 0 1.437-.24 2.02-.693.736-.573 1.156-1.447 1.156-2.68 0-1.189-.827-2.922-2.496-5.153l-.295-.388a35.25 35.25 0 0 0-.153-.197zM4.943 9.89c.093 0 .172.063.195.15l.006.04c.03.518.192.907.46 1.193l.068.07c.053.05.066.127.035.19l-.02.031-.403.516a.27.27 0 0 1-.38.045l-.011-.009-.012-.011c-.466-.458-.755-1.078-.824-1.845l-.011-.156a.204.204 0 0 1 .152-.208l.052-.006h.693zm7.123-7.29.05.067.041.059c1.426 2.047 2.138 3.647 2.138 4.91 0 1.188-.382 2.158-1.11 2.811-.49.44-1.118.709-1.737.759.029-.26.043-.533.043-.817 0-.095-.003-.193-.01-.292.342-.054.692-.217.97-.467.482-.432.746-1.102.746-1.993 0-.951-.591-2.31-1.812-4.097l-.149-.216-.02.029c-.606.871-1.067 1.644-1.388 2.32-.204-.354-.428-.72-.67-1.098.32-.59.72-1.224 1.199-1.909a1.16 1.16 0 0 1 .101-.125l.057-.057.014-.013a1.047 1.047 0 0 1 1.482.066l.055.063z" fill="#00B0CA" fill-rule="nonzero"/>
    </g>
</svg>
