<svg width="16" height="16" xmlns="http://www.w3.org/2000/svg">
    <g fill="none" fill-rule="evenodd">
        <path d="M0 0h16v16H0z"/>
        <path d="M7.42 2.466a.941.941 0 0 1 1.26.09l.053.061.068.086c.385.478.738.94 1.059 1.384l.267.376c.303.435.574.852.813 1.252l.197.338c.757 1.34 1.138 2.48 1.138 3.436 0 1.57-.576 2.764-1.58 3.546A4.508 4.508 0 0 1 8 13.961c-.909 0-1.91-.3-2.692-.903-1.008-.775-1.583-1.975-1.583-3.569 0-1.414.834-3.234 2.486-5.5l.283-.381c.048-.065.097-.13.147-.194l.306-.395c.104-.132.211-.267.32-.402a.941.941 0 0 1 .091-.098l.063-.053zm.812 1.285L8 3.46l-.072.09c-.107.134-.21.267-.312.398l-.294.387c-.143.192-.28.38-.411.563l-.254.363C5.432 7.05 4.824 8.47 4.824 9.49c0 1.256.42 2.133 1.154 2.698A3.422 3.422 0 0 0 8 12.863c.666 0 1.437-.24 2.02-.694.736-.573 1.156-1.447 1.156-2.68 0-1.189-.827-2.921-2.496-5.153l-.295-.387-.153-.198zm-1.84 5.67c.094 0 .173.063.196.15l.006.039c.03.519.192.908.46 1.193l.068.07c.053.05.066.127.035.19l-.02.031-.403.516a.27.27 0 0 1-.38.046l-.023-.02c-.466-.458-.755-1.079-.824-1.846l-.011-.155a.204.204 0 0 1 .152-.208l.046-.007h.699z" fill="#00B0CA" fill-rule="nonzero"/>
    </g>
</svg>
