<svg width="16" height="16" xmlns="http://www.w3.org/2000/svg">
    <g fill="none" fill-rule="evenodd">
        <path d="M0 0h16v16H0z"/>
        <path d="M9.377 9.012a.882.882 0 0 1 1.18.083l.054.06.032.04c1.139 1.426 1.71 2.543 1.71 3.447 0 .849-.315 1.546-.906 2.008a2.531 2.531 0 0 1-1.525.526 2.531 2.531 0 0 1-1.523-.514c-.594-.46-.909-1.16-.909-2.02 0-.811.46-1.794 1.377-3.018l.24-.31c.04-.053.083-.106.126-.16a.887.887 0 0 1 .085-.092l.059-.05zm.682.888-.137-.175-.022.028c-1.018 1.278-1.508 2.241-1.508 2.885 0 .593.195 1.027.558 1.309.268.209.63.328.972.328.334 0 .7-.124.97-.337.364-.286.559-.719.559-1.3 0-.57-.384-1.388-1.176-2.454L10.06 9.9zM6.62 2.325c.545.43 1.015.632 1.405.632.359 0 .792-.172 1.293-.536l.098-.073a.98.98 0 0 1 .85-.163l.096.032 1.268.492a.961.961 0 0 1 .234.132l2.34 1.872c.418.334.465.94.1 1.331l-.07.067-1.9 1.653v2.557a15.487 15.487 0 0 0-1.097-1.616V5.843c0-.216.175-.392.391-.392h.314c.217 0 .392.176.392.392v.465l1.01-.878-2.13-1.704-1.189-.462-.025.019c-.68.501-1.328.765-1.95.772h-.025c-.602 0-1.223-.24-1.867-.704l-.16-.12-1.287.493-2.064 1.718 1.001.962v-.56c0-.217.176-.393.392-.393h.314c.217 0 .392.176.392.392v5.765h2.156c-.136.39-.213.756-.23 1.098H4.039a.392.392 0 0 1-.392-.392V7.928L1.732 6.087A.902.902 0 0 1 1.7 4.81l.072-.068 2.255-1.877a.958.958 0 0 1 .25-.15l1.39-.533a.98.98 0 0 1 .954.143z" fill="#00B0CA" fill-rule="nonzero"/>
    </g>
</svg>
